<svg width="32" height="32" viewBox="0 0 32 32" fill="none" xmlns="http://www.w3.org/2000/svg">
<path d="M15.4506 6.41951C15.747 6.56672 16.0803 6.98945 16.304 7.23941C18.2235 9.38363 19.2303 12.1146 19.0522 14.9894C18.8798 17.7713 17.506 20.2415 15.4439 22.0671C15.0534 21.8002 14.6961 21.4203 14.3837 21.0671C12.632 19.0859 11.6718 16.3023 11.8391 13.6615C12.0115 10.9388 13.4033 8.21442 15.4506 6.41951Z" fill="#0D0B0A"/>
<path d="M23.6207 10.3131C23.6264 10.3228 23.6329 10.332 23.6378 10.3421C23.747 10.5645 23.7786 10.9175 23.8063 11.1644C23.9506 12.4484 23.8312 13.7357 23.3796 14.9515C22.2514 17.9887 19.6436 20.2245 16.7603 21.5499C16.7263 21.5495 16.7491 21.5522 16.6973 21.522C16.8734 21.2338 17.1192 20.9762 17.3225 20.7053C17.6334 20.2825 17.9152 19.8391 18.1657 19.3784C19.049 17.7531 19.4714 15.9657 19.47 14.1224C19.4697 13.5989 19.4577 13.076 19.3062 12.5707C19.5766 12.2706 19.9079 12.0177 20.2295 11.7743C21.266 10.9899 22.3104 10.444 23.6207 10.3131Z" fill="#0D0B0A"/>
<path d="M7.24546 10.3259C7.40107 10.3318 7.55806 10.352 7.71196 10.3755C8.89638 10.5557 9.9327 11.1864 10.8579 11.9163C11.1162 12.1201 11.3987 12.3325 11.5932 12.6002C11.1012 15.1277 11.7537 17.7778 13.0606 19.9637C13.2693 20.3111 13.4948 20.6481 13.7362 20.9738C13.8515 21.129 13.9887 21.2698 14.0921 21.4327L14.0555 21.4802C11.9007 20.5587 9.88206 18.928 8.58347 16.9789C7.22113 14.934 6.77065 12.7312 7.24546 10.3259Z" fill="#0D0B0A"/>
<path d="M25.7283 15.9661C26.0719 15.9251 26.8419 15.8818 27.1299 16.0652C27.1444 16.1085 27.1487 16.1128 27.1502 16.1654C27.156 16.3669 27.0243 16.6687 26.956 16.8567C26.499 18.1543 25.7166 19.313 24.6838 20.2218C22.6619 22.0095 20.0411 22.6509 17.3943 22.4807C16.8943 22.4285 16.379 22.3937 15.8984 22.2405C18.116 21.5584 20.2255 20.1649 21.7539 18.4247C22.1296 17.9968 22.405 17.5001 22.7706 17.0699C23.4644 16.2532 24.7224 16.0373 25.7283 15.9661Z" fill="#0D0B0A"/>
<path d="M4.54306 16.0338C5.57648 15.912 6.97875 16.0822 7.82995 16.7256C8.33602 17.1082 8.641 17.8185 9.05925 18.3021C10.3672 19.8167 12.0053 21.011 13.8475 21.7928C14.2398 21.9607 14.6436 22.136 15.0584 22.2381L14.2293 22.3766C11.8148 22.7241 9.31281 22.2927 7.24693 20.9495C5.8401 20.0345 4.84954 18.7799 4.26718 17.215C4.18168 16.9855 4.0537 16.7364 4.00999 16.4973C3.98445 16.3576 4.00693 16.2656 4.08852 16.1472C4.21839 16.0516 4.38723 16.0528 4.54306 16.0338Z" fill="#0D0B0A"/>
<path d="M15.5762 22.4018C15.9962 22.5511 16.4189 22.6707 16.8595 22.7422C17.6186 22.8653 18.5006 22.8293 19.1826 23.2247C19.6862 23.5168 20.202 24.2008 20.3443 24.7679C20.3704 24.872 20.3629 24.8805 20.3095 24.9668C19.7824 25.1567 19.2705 25.1115 18.746 24.9397C17.4825 24.5265 16.1946 23.6057 15.5762 22.4018Z" fill="#0D0B0A"/>
<path d="M15.3384 22.4049C15.365 22.4026 15.3906 22.4165 15.4164 22.4238C15.4151 22.4358 15.4153 22.4482 15.4124 22.4602C15.3476 22.7291 14.3074 23.8255 14.0672 24.0154C13.2373 24.6708 12.005 25.1911 10.9342 25.0631C10.9056 25.0569 10.8658 25.0492 10.8398 25.0372C10.7821 25.0105 10.7456 24.9892 10.7304 24.9269C10.6898 24.7594 10.785 24.5652 10.8612 24.4197C11.1064 23.9508 11.4905 23.4007 11.9717 23.1473C12.5648 22.8355 13.4406 22.8366 14.0998 22.7194C14.5221 22.6444 14.929 22.5298 15.3384 22.4049Z" fill="#0D0B0A"/>
</svg>
